# xmcd
#
# Track frame offsets: 
#        150
#        20455
#        52597
#        74269
#        96911
#        120692
#        144165
#        165841
#        189204
#        216129
#        230345
#        249624
#        273756
#        298340
#        316891
#        338011
#
# Disc length: 4696 seconds
#
# Revision: 0
# Processed by: cddbd v1.5.2PL0 Copyright (c) Steve Scherf et al.
# Submitted via: ExactAudioCopyFreeDBPlugin 1.0
#
DISCID=d6125610
DTITLE=谷村新司 - Best ★ Best 谷村新司 1
DYEAR=1900
DGENRE=JPop
TTITLE0=いい日旅立ち
TTITLE1=群青
TTITLE2=遠くで汽笛を聞きながら
TTITLE3=陽はまた昇る
TTITLE4=帰らざる日々
TTITLE5=狂った果実
TTITLE6=歩きつづけて
TTITLE7=チャンピオン
TTITLE8=祇園祭
TTITLE9=去年の雪
TTITLE10=浪漫鉄道
TTITLE11=幸福
TTITLE12=ノーザンエクスプレス
TTITLE13=青年の樹
TTITLE14=残照
TTITLE15=LADE
EXTD=
EXTT0=
EXTT1=
EXTT2=
EXTT3=
EXTT4=
EXTT5=
EXTT6=
EXTT7=
EXTT8=
EXTT9=
EXTT10=
EXTT11=
EXTT12=
EXTT13=
EXTT14=
EXTT15=
PLAYORDER=
